<svg width="20" height="22" viewBox="0 0 20 22" fill="none" xmlns="http://www.w3.org/2000/svg">
<path fill-rule="evenodd" clip-rule="evenodd" d="M10 0C8.14349 0 6.36301 0.737498 5.05025 2.05025C3.7375 3.36301 3 5.14348 3 7C3 10.3527 2.28293 12.4346 1.62211 13.6461C1.29031 14.2544 0.967227 14.6535 0.742799 14.8904C0.630323 15.0091 0.54194 15.0878 0.488723 15.1322C0.462102 15.1544 0.444248 15.168 0.436549 15.1737L0.433691 15.1758C0.0752062 15.4221 -0.083433 15.8725 0.0429095 16.2898C0.170608 16.7115 0.559334 17 1 17H19C19.4407 17 19.8294 16.7115 19.9571 16.2898C20.0834 15.8725 19.9248 15.4221 19.5663 15.1758L19.5635 15.1737C19.5558 15.168 19.5379 15.1544 19.5113 15.1322C19.4581 15.0878 19.3697 15.0091 19.2572 14.8904C19.0328 14.6535 18.7097 14.2544 18.3779 13.6461C17.7171 12.4346 17 10.3527 17 7C17 5.14349 16.2625 3.36301 14.9497 2.05025C13.637 0.737498 11.8565 0 10 0ZM16.6221 14.6039C16.6982 14.7434 16.7746 14.8753 16.8507 15H3.14933C3.22541 14.8753 3.3018 14.7434 3.3779 14.6039C4.21707 13.0654 5 10.6473 5 7C5 5.67392 5.52679 4.40215 6.46447 3.46447C7.40215 2.52678 8.67392 2 10 2C11.3261 2 12.5979 2.52678 13.5355 3.46447C14.4732 4.40215 15 5.67392 15 7C15 10.6473 15.7829 13.0654 16.6221 14.6039ZM9.13502 19.4982C8.8579 19.0205 8.24598 18.8579 7.76825 19.135C7.29052 19.4121 7.1279 20.024 7.40502 20.5018C7.66874 20.9564 8.04726 21.3337 8.50268 21.5961C8.95811 21.8584 9.47445 21.9965 10 21.9965C10.5256 21.9965 11.0419 21.8584 11.4974 21.5961C11.9528 21.3337 12.3313 20.9564 12.595 20.5018C12.8721 20.024 12.7095 19.4121 12.2318 19.135C11.7541 18.8579 11.1421 19.0205 10.865 19.4982C10.7771 19.6498 10.6509 19.7756 10.4991 19.863C10.3473 19.9504 10.1752 19.9965 10 19.9965C9.82483 19.9965 9.65272 19.9504 9.50091 19.863C9.3491 19.7756 9.22293 19.6498 9.13502 19.4982Z" fill="#3A474E"/>
</svg>
