<svg width="40" height="40" viewBox="0 0 40 40" fill="none" xmlns="http://www.w3.org/2000/svg">
<circle cx="20" cy="20" r="20" fill="#586CF5"/>
<path d="M25.09 10.8199C24.1703 10.0635 23.0933 9.52198 21.9377 9.23479C20.782 8.94761 19.5768 8.92204 18.41 9.15995C16.8564 9.47377 15.431 10.242 14.3147 11.3672C13.1984 12.4924 12.4415 13.9239 12.14 15.4799C11.9198 16.6467 11.9599 17.8476 12.2572 18.9971C12.5545 20.1466 13.1018 21.2163 13.86 22.1299C14.5637 22.924 14.967 23.9395 15 24.9999V27.9999C15 28.7956 15.3161 29.5587 15.8787 30.1213C16.4413 30.6839 17.2044 30.9999 18 30.9999H22C22.7957 30.9999 23.5587 30.6839 24.1213 30.1213C24.6839 29.5587 25 28.7956 25 27.9999V25.1899C25.0336 24.0191 25.4637 22.8944 26.22 21.9999C27.5451 20.3607 28.1698 18.2648 27.9582 16.1676C27.7466 14.0704 26.7159 12.1414 25.09 10.7999V10.8199ZM23 27.9999C23 28.2652 22.8946 28.5195 22.7071 28.7071C22.5196 28.8946 22.2652 28.9999 22 28.9999H18C17.7348 28.9999 17.4804 28.8946 17.2929 28.7071C17.1054 28.5195 17 28.2652 17 27.9999V26.9999H23V27.9999ZM24.67 20.7599C23.6645 21.9525 23.0779 23.442 23 24.9999H21V21.9999C21 21.7347 20.8946 21.4804 20.7071 21.2928C20.5196 21.1053 20.2652 20.9999 20 20.9999C19.7348 20.9999 19.4804 21.1053 19.2929 21.2928C19.1054 21.4804 19 21.7347 19 21.9999V24.9999H17C16.9736 23.468 16.4069 21.9947 15.4 20.8399C14.7356 20.0439 14.2889 19.0894 14.1033 18.0693C13.9177 17.0492 13.9997 15.9985 14.3411 15.0195C14.6825 14.0405 15.2718 13.1667 16.0515 12.4833C16.8312 11.7999 17.7747 11.3301 18.79 11.1199C19.6626 10.9403 20.5642 10.9572 21.4294 11.1694C22.2946 11.3816 23.1017 11.7839 23.7921 12.3469C24.4824 12.9099 25.0388 13.6196 25.4207 14.4245C25.8026 15.2293 26.0005 16.1091 26 16.9999C26.0074 18.3698 25.5371 19.6994 24.67 20.7599V20.7599Z" fill="white"/>
</svg>
