<svg width="40" height="40" viewBox="0 0 40 40" fill="none" xmlns="http://www.w3.org/2000/svg">
<circle cx="20" cy="20" r="19.5" fill="#EDEFF1" stroke="#D1D8DC"/>
<path fill-rule="evenodd" clip-rule="evenodd" d="M17 14C17 12.3431 18.3432 11 20 11C21.6569 11 23 12.3431 23 14C23 15.6569 21.6569 17 20 17C18.3432 17 17 15.6569 17 14ZM20 9C17.2386 9 15 11.2386 15 14C15 16.7614 17.2386 19 20 19C22.7614 19 25 16.7614 25 14C25 11.2386 22.7614 9 20 9ZM16 21C14.6739 21 13.4021 21.5268 12.4645 22.4645C11.5268 23.4021 11 24.6739 11 26V28C11 28.5523 11.4477 29 12 29C12.5523 29 13 28.5523 13 28V26C13 25.2043 13.3161 24.4413 13.8787 23.8787C14.4413 23.3161 15.2044 23 16 23H24C24.7956 23 25.5587 23.3161 26.1213 23.8787C26.6839 24.4413 27 25.2044 27 26V28C27 28.5523 27.4477 29 28 29C28.5523 29 29 28.5523 29 28V26C29 24.6739 28.4732 23.4021 27.5355 22.4645C26.5978 21.5268 25.3261 21 24 21H16Z" fill="#94A2AD"/>
</svg>